:SAMPLES-PER-SECOND 30
:FULLY-SPECIFIED
:DEGREES
155
root  34.77765782 36.44467151 -14.73858601 12.5529232 17.36425018 5.64540863
lowerback  -8.516428947 4.13409996 4.273880005
upperback  -4.472080231 4.861589909 -5.34732008
thorax  0.9361649752 2.170959949 -7.540709972
lowerneck  -16.07360077 -2.596980095 0.7110260129
upperneck  11.78180027 -4.936200142 6.872839928
head  6.394040108 -1.866709828 1.576990008
lclavicle  0 -4.497500157e-015 -2.743230041e-014
lhumerus  -42.30690002 27.1937027 67.52010345
lradius  -0.4744177163 -6.507048965e-006 25.77160263
lwrist  4.824992743e-007 -3.790274832e-007 -34.16500092
lhand  -0 -37.3893013 -10.84599972
lfingers  90 7.125020027 -90
lthumb  95.08356284 -25.66051135 101.6087012
rclavicle  0 -4.497500157e-015 -2.743230041e-014
rhumerus  75.07810211 -3.203619003 -58.45940399
rradius  -5.16745672e-007 2.214343908e-008 38.49549866
rwrist  1.129822067e-006 0.001802438172 -153.0590057
rhand  -1.775204413e-031 5.974359989 -7.004710197
rfingers  -90 -7.125020027 -90
rthumb  -84.4197498 -9.086832989 -58.25732061
rfemur  -14.7717123 8.360251427 15.34684372
rtibia  -4.179863453 2.708708286 25.62534714
rfoot  -3.687826395 -12.38376999 -46.85403442
rtoes  3.977366091 19.6164152 -101.7008647
lfemur  -13.07262707 -24.62764549 -18.40598297
ltibia  3.73593092 3.167822599 14.32230759
lfoot  0.6672579646 -31.0219593 26.41762733
ltoes  -8.659573585 -18.09768288 -116.1177732
156
root  34.77842376 36.44245778 -14.73886835 12.57339478 17.47614288 5.697370529
lowerback  -8.476209641 4.158309937 4.267420292
upperback  -4.508600235 4.893539906 -5.333069801
thorax  0.8793799877 2.184089899 -7.521550179
lowerneck  -16.07509995 -2.647109985 0.6586290002
upperneck  11.83860016 -4.997499943 6.881279945
head  6.41590023 -1.896100163 1.581670046
lclavicle  0 -4.497500157e-015 -2.743230041e-014
lhumerus  -42.36729813 27.31830025 67.40730286
lradius  -0.4736051559 -6.507048965e-006 25.73119736
lwrist  4.824992743e-007 -3.790274832e-007 -34.38259888
lhand  -4.445740744e-031 -37.41350174 -10.77779961
lfingers  90 7.125020027 -90
lthumb  95.07977838 -25.59281199 101.6280799
rclavicle  0 -4.497500157e-015 -2.743230041e-014
rhumerus  75.188797 -3.333398819 -58.83549881
rradius  -5.16745672e-007 2.214343908e-008 38.05860138
rwrist  1.129822067e-006 0.001802438172 -152.8029938
rhand  -1.774470142e-031 5.743360043 -7.006909847
rfingers  -90 -7.125020027 -90
rthumb  -84.4784032 -9.070244749 -58.48299879
rfemur  -14.78537273 8.317272186 15.33196449
rtibia  -4.221846581 2.674434185 25.68314743
rfoot  -3.731726646 -12.37952805 -46.91821289
rtoes  3.941305921 19.62341667 -101.5934722
lfemur  -13.03820801 -24.60770035 -18.45589638
ltibia  3.757079363 3.199699163 14.25006294
lfoot  0.6565898657 -31.06798935 26.31455994
ltoes  -8.676014735 -18.09001178 -116.1707111
157
root  34.78052034 36.44050838 -14.73924231 12.58991718 17.57765198 5.720121861
lowerback  -8.50717926 4.182519913 4.254889488
upperback  -4.50605011 4.925769806 -5.352769852
thorax  0.9050340056 2.200880051 -7.529729843
lowerneck  -16.08440018 -2.689779997 0.6612669826
upperneck  11.85389996 -5.062210083 6.902840137
head  6.425230026 -1.925410032 1.581179857
lclavicle  0 -4.497500157e-015 -2.743230041e-014
lhumerus  -42.32360077 27.16810036 67.46499634
lradius  -0.4727416337 -6.507048965e-006 25.76080322
lwrist  4.824992743e-007 -3.790274832e-007 -34.18479919
lhand  -4.445681199e-031 -37.41249847 -10.73740005
lfingers  90 7.125020027 -90
lthumb  95.07027581 -25.55332785 101.6230792
rclavicle  0 -4.497500157e-015 -2.743230041e-014
rhumerus  75.2736969 -3.504970074 -58.98550034
rradius  -5.16745672e-007 2.214343908e-008 37.74140167
rwrist  1.129822067e-006 0.001802438172 -152.7940063
rhand  -1.774318512e-031 5.694469929 -7.18132019
rfingers  -90 -7.125020027 -90
rthumb  -84.58272519 -8.918289172 -58.54512403
rfemur  -14.77999878 8.312378883 15.33684349
rtibia  -4.251042843 2.676301241 25.68837738
rfoot  -3.734028101 -12.29944515 -46.9810257
rtoes  3.919462887 19.62762533 -101.5284382
lfemur  -13.10315228 -24.63886642 -18.43999863
ltibia  3.730236053 3.210955143 14.31483936
lfoot  0.6638913751 -31.12100029 26.26534271
ltoes  -8.67846847 -18.08886535 -116.1786136
158
root  34.78150856 36.44049036 -14.738984 12.62906265 17.66486359 5.762050629
lowerback  -8.524829865 4.205709934 4.310060501
upperback  -4.485360146 4.954979897 -5.378099918
thorax  0.9476500154 2.217509985 -7.583429813
lowerneck  -16.11050034 -2.726639986 0.6840900183
upperneck  11.85820007 -5.120120049 6.907519817
head  6.432650089 -1.951709986 1.572589993
lclavicle  0 -4.497500157e-015 -2.743230041e-014
lhumerus  -42.23960114 26.99710083 67.55470276
lradius  -0.4718689322 -6.507048965e-006 25.78420067
lwrist  4.824992743e-007 -3.790274832e-007 -33.93069839
lhand  -4.447118361e-031 -37.43669891 -10.75230026
lfingers  90 7.125020027 -90
lthumb  95.08497592 -25.56703654 101.650359
rclavicle  0 -4.497500157e-015 -2.743230041e-014
rhumerus  75.3513031 -3.675999403 -59.00249863
rradius  -5.16745672e-007 2.214343908e-008 37.48849869
rwrist  1.129822067e-006 0.001802438172 -152.5579987
rhand  -1.774173619e-031 5.647349834 -7.300889969
rfingers  -90 -7.125020027 -90
rthumb  -84.65729945 -8.813189589 -58.60078641
rfemur  -14.79373646 8.258088112 15.32494354
rtibia  -4.284293175 2.625221968 25.69983673
rfoot  -3.756263256 -12.31354904 -47.03512573
rtoes  3.965276767 19.6187699 -101.6648568
lfemur  -13.15142441 -24.66621399 -18.45195007
ltibia  3.722114325 3.218854666 14.32573509
lfoot  0.653809607 -31.13706207 26.1867733
ltoes  -8.630483566 -18.11121102 -116.024161
159
root  34.78362016 36.44525423 -14.73831267 12.66563797 17.74607468 5.804861546
lowerback  -8.520480156 4.231679916 4.336239338
upperback  -4.491230011 4.988049984 -5.392039776
thorax  0.9478369951 2.233669996 -7.60999012
lowerneck  -16.09210014 -2.765350103 0.6958730221
upperneck  11.86170006 -5.175600052 6.906960011
head  6.427351952 -1.978680015 1.564830065
lclavicle  0 -4.497500157e-015 -2.743230041e-014
lhumerus  -42.20940018 27.02050018 67.51760101
lradius  -0.4709870517 -6.507048965e-006 25.72699928
lwrist  4.824992743e-007 -3.790274832e-007 -34.00529861
lhand  -4.447260948e-031 -37.43909836 -10.81359959
lfingers  90 7.125020027 -90
lthumb  95.0998741 -25.62695715 101.658951
rclavicle  0 -4.497500157e-015 -2.743230041e-014
rhumerus  75.31269836 -3.901339531 -58.73820114
rradius  -5.16745672e-007 2.214343908e-008 37.31439972
rwrist  1.129822067e-006 0.001802438172 -152.6069946
rhand  -1.773965891e-031 5.579090118 -7.313809872
rfingers  -90 -7.125020027 -90
rthumb  -84.68064988 -8.797626782 -58.66831746
rfemur  -14.82196522 8.25451088 15.30582237
rtibia  -4.32093668 2.615769386 25.7413559
rfoot  -3.792449236 -12.253335 -47.11917877
rtoes  3.971677195 19.61752419 -101.6839199
lfemur  -13.16776657 -24.703022 -18.48462677
ltibia  3.721409082 3.219646454 14.316329
lfoot  0.6412980556 -31.13571548 26.1172142
ltoes  -8.634978259 -18.10912451 -116.0386206
160
root  34.7848727 36.44446426 -14.73675825 12.69776726 17.83289146 5.847934246
lowerback  -8.497779846 4.243690014 4.361120701
upperback  -4.503900051 5.002709866 -5.396870136
thorax  0.9269379973 2.239789963 -7.629600048
lowerneck  -16.06879997 -2.785779953 0.6862879992
upperneck  11.84980011 -5.20235014 6.921879768
head  6.422121525 -1.9920789 1.563497663
lclavicle  0 -4.497500157e-015 -2.743230041e-014
lhumerus  -42.23870087 27.16519928 67.39839935
lradius  -0.4700958431 -6.507048965e-006 25.67320061
lwrist  4.824992743e-007 -3.790274832e-007 -34.16130066
lhand  -4.445924607e-031 -37.41659927 -10.87290001
lfingers  90 7.125020027 -90
lthumb  95.10245953 -25.6857984 101.6404976
rclavicle  0 -4.497500157e-015 -2.743230041e-014
rhumerus  75.28780365 -4.098770142 -58.4518013
rradius  -5.16745672e-007 2.214343908e-008 37.15330124
rwrist  1.129822067e-006 0.001802438172 -152.7850037
rhand  -1.773706876e-031 5.492770195 -7.206250191
rfingers  -90 -7.125020027 -90
rthumb  -84.64503357 -8.883896529 -58.74381349
rfemur  -14.85376644 8.242441177 15.29451656
rtibia  -4.362273693 2.616225958 25.79556274
rfoot  -3.806586504 -12.17066193 -47.13874054
rtoes  3.945574259 19.62259141 -101.606182
lfemur  -13.20315552 -24.77384567 -18.50431252
ltibia  3.714941263 3.206709146 14.32473183
lfoot  0.6243265271 -31.10571098 26.05349731
ltoes  -8.64839335 -18.10288893 -116.081787
161
root  34.78423592 36.4417369 -14.73567242 12.72526741 17.92352867 5.878217697
lowerback  -8.450739861 4.268149853 4.399899483
upperback  -4.529970169 5.032090187 -5.426909924
thorax  0.8844199777 2.251250029 -7.684569836
lowerneck  -16.04879951 -2.816309929 0.7218750119
upperneck  11.8689003 -5.254099846 6.920700073
head  6.429810047 -2.015919924 1.557154894
lclavicle  0 -4.497500157e-015 -2.743230041e-014
lhumerus  -42.27310181 27.29590034 67.23680115
lradius  -0.4691953659 -6.507048965e-006 25.57990265
lwrist  4.824992743e-007 -3.790274832e-007 -34.37179947
lhand  -4.448949928e-031 -37.46749878 -10.8416996
lfingers  90 7.125020027 -90
lthumb  95.11952536 -25.65331723 101.6919692
rclavicle  0 -4.497500157e-015 -2.743230041e-014
rhumerus  75.27069855 -4.312580109 -58.54840088
rradius  -5.16745672e-007 2.214343908e-008 36.96239853
rwrist  1.129822067e-006 0.001802438172 -152.9170074
rhand  -1.773071127e-031 5.274819851 -7.382599831
rfingers  -90 -7.125020027 -90
rthumb  -84.78979798 -8.718670628 -58.97044486
rfemur  -14.87572289 8.199432373 15.29763031
rtibia  -4.392427921 2.6151824 25.83263588
rfoot  -3.819030285 -12.12092972 -47.15249634
rtoes  3.962538615 19.61930219 -101.6567018
lfemur  -13.23806953 -24.76851273 -18.50881004
ltibia  3.710932493 3.231333017 14.32544994
lfoot  0.6124839783 -31.15438271 25.95979118
ltoes  -8.620005514 -18.11606981 -115.990459
